<svg xmlns="http://www.w3.org/2000/svg" viewBox="0 0 24.71 23"><defs><style>.cls-1{fill:#fff;}</style></defs><title>Asset 8</title><g id="Layer_2" data-name="Layer 2"><g id="DataCloud_Home"><polygon class="cls-1" points="6.71 22.5 4.71 22.5 4.71 17.5 9.71 17.5 9.71 19.5 6.71 19.5 6.71 22.5"/><path class="cls-1" d="M13.21,23a11.43,11.43,0,0,1-8.13-3.37l1.41-1.41A9.5,9.5,0,1,0,3.71,11.5h-2A11.5,11.5,0,1,1,13.21,23Z"/><polygon class="cls-1" points="2.71 17.91 0 15.21 1.41 13.79 2.71 15.09 7 10.79 8.41 12.21 2.71 17.91"/><polygon class="cls-1" points="9.98 11.19 5 6.21 6.41 4.79 9.43 7.81 10.71 5.26 10.71 1.5 12.71 1.5 12.71 5.74 9.98 11.19"/><polygon class="cls-1" points="21.81 16.95 19.09 11.5 16.17 11.5 13.52 7.53 16.85 1.99 18.56 3.02 15.89 7.47 17.24 9.5 20.32 9.5 23.6 16.05 21.81 16.95"/><polygon class="cls-1" points="13.71 21.89 11.71 21.89 11.71 16.09 14.29 13.5 17.27 13.5 20.56 18.98 18.85 20.02 16.14 15.5 15.12 15.5 13.71 16.91 13.71 21.89"/></g></g></svg>