<svg xmlns="http://www.w3.org/2000/svg" viewBox="0 0 547.75 547.76"><title>Asset 3</title><g id="Layer_2" data-name="Layer 2"><g id="DataCloud_Home"><path d="M273.77,547.76h0a3.16,3.16,0,1,1,3.17-3.16A3.16,3.16,0,0,1,273.75,547.76Z"/><path d="M242,545.91a2.3,2.3,0,0,1-.36,0h-.12a3.16,3.16,0,0,1,.8-6.27h0a3.16,3.16,0,0,1-.36,6.29Zm-31.39-5.56a3.2,3.2,0,0,1-.75-.09h0a3.16,3.16,0,0,1,1.44-6.15l.11,0a3.16,3.16,0,0,1-.75,6.23Zm-30.54-9.24a3.28,3.28,0,0,1-1.1-.2l-.05,0a3.16,3.16,0,0,1,2.15-5.94l.11,0a3.16,3.16,0,0,1-1.11,6.12Zm-29.22-12.79a3.12,3.12,0,0,1-1.42-.34l-.12-.06a3.16,3.16,0,1,1,2.94-5.59h0a3.16,3.16,0,0,1-1.43,6Zm-27.51-16.15a3.08,3.08,0,0,1-1.75-.54l0,0a3.16,3.16,0,0,1,3.48-5.27l.09.06a3.16,3.16,0,0,1-1.77,5.78ZM97.92,482.91a3.16,3.16,0,0,1-2-.75l-.09-.08a3.16,3.16,0,1,1,4.14-4.77l0,0a3.16,3.16,0,0,1-2,5.57Zm-23-22.1a3.15,3.15,0,0,1-2.32-1l0-.05a3.16,3.16,0,0,1,4.6-4.32l.08.08a3.16,3.16,0,0,1-2.32,5.3ZM54.7,436.18a3.11,3.11,0,0,1-2.55-1.29l-.08-.1a3.16,3.16,0,1,1,5.15-3.66l0,0a3.15,3.15,0,0,1-.68,4.41A3.09,3.09,0,0,1,54.7,436.18ZM37.48,409.36a3.15,3.15,0,0,1-2.76-1.62l0-.05a3.16,3.16,0,1,1,5.5-3.11l.05.08a3.16,3.16,0,0,1-2.76,4.7ZM23.54,380.71a3.16,3.16,0,0,1-2.91-1.94l0-.1a3.16,3.16,0,1,1,5.85-2.39l0,.05a3.17,3.17,0,0,1-2.92,4.38ZM13.08,350.59a3.16,3.16,0,0,1-3-2.3l0-.08a3.16,3.16,0,0,1,6.08-1.72l0,.08a3.17,3.17,0,0,1-2.19,3.9A3.13,3.13,0,0,1,13.08,350.59ZM6.26,319.45a3.16,3.16,0,0,1-3.11-2.66l0-.12a3.16,3.16,0,0,1,6.25-.93v.05a3.17,3.17,0,0,1-2.62,3.62A4.38,4.38,0,0,1,6.26,319.45Zm-3.1-31.73A3.17,3.17,0,0,1,0,284.67v-.05a3.16,3.16,0,0,1,6.31-.29v.12a3.16,3.16,0,0,1-3.05,3.26Zm.6-31.88H3.51a3.16,3.16,0,0,1-2.9-3.4v0a3.16,3.16,0,1,1,6.3.43v.11A3.16,3.16,0,0,1,3.76,255.84Zm538.94-11a3.16,3.16,0,0,1-3.13-2.76V242a3.16,3.16,0,0,1,6.28-.71v0a3.16,3.16,0,0,1-2.74,3.53A2.68,2.68,0,0,1,542.7,244.85ZM8.08,224.26a3.08,3.08,0,0,1-.61-.06A3.17,3.17,0,0,1,5,220.49l0-.09a3.16,3.16,0,0,1,6.2,1.23l0,.07A3.15,3.15,0,0,1,8.08,224.26Zm529-10.79A3.17,3.17,0,0,1,534,211V211a3.16,3.16,0,1,1,6.14-1.5l0,.11a3.15,3.15,0,0,1-2.35,3.79A3,3,0,0,1,537.11,213.47Zm-521-20.09a3.27,3.27,0,0,1-1-.15,3.17,3.17,0,0,1-2-4l0-.1a3.16,3.16,0,1,1,6,2l0,.06A3.15,3.15,0,0,1,16.09,193.38ZM527.84,183a3.16,3.16,0,0,1-3-2.07l0-.06a3.16,3.16,0,0,1,5.92-2.21l0,.1a3.15,3.15,0,0,1-1.88,4.05A3.11,3.11,0,0,1,527.84,183ZM27.7,163.67a3.15,3.15,0,0,1-2.86-4.48l0-.06a3.16,3.16,0,0,1,5.75,2.62l0,.09A3.16,3.16,0,0,1,27.7,163.67ZM515,153.77A3.16,3.16,0,0,1,512.2,152l0-.06a3.16,3.16,0,1,1,5.62-2.88l.05.08a3.16,3.16,0,0,1-2.82,4.59ZM42.74,135.55a3.16,3.16,0,0,1-2.69-4.81l.05-.08A3.16,3.16,0,1,1,45.47,134l0,.06A3.18,3.18,0,0,1,42.74,135.55Zm456.12-9.25a3.15,3.15,0,0,1-2.62-1.4l-.05-.06a3.16,3.16,0,1,1,5.25-3.52l0,.06a3.15,3.15,0,0,1-2.62,4.92ZM61,109.39a3.09,3.09,0,0,1-2-.69,3.15,3.15,0,0,1-.5-4.44l0,0a3.16,3.16,0,0,1,5,3.86l-.08.1A3.18,3.18,0,0,1,61,109.39Zm418.61-8.48a3.14,3.14,0,0,1-2.39-1.09l-.07-.08a3.16,3.16,0,1,1,4.81-4.09l0,0a3.14,3.14,0,0,1-.32,4.45A3.11,3.11,0,0,1,479.59,100.91ZM82.16,85.55a3.16,3.16,0,0,1-2.23-5.39L80,80.1a3.16,3.16,0,0,1,4.46,4.47l-.06.06A3.15,3.15,0,0,1,82.16,85.55ZM457.47,78a3.15,3.15,0,0,1-2.14-.84l-.06,0a3.16,3.16,0,0,1,4.28-4.65l.06.06a3.16,3.16,0,0,1,.18,4.46A3.13,3.13,0,0,1,457.47,78ZM106,64.35a3.15,3.15,0,0,1-2-5.62l.09-.07a3.16,3.16,0,1,1,3.89,5l0,0A3.12,3.12,0,0,1,106,64.35Zm326.85-6.63a3.12,3.12,0,0,1-1.85-.6l-.08-.06A3.16,3.16,0,1,1,434.62,52l.05,0a3.16,3.16,0,0,1-1.85,5.72ZM132.1,46.09a3.16,3.16,0,0,1-1.66-5.85l.07,0a3.16,3.16,0,1,1,3.31,5.38l-.07,0A3.14,3.14,0,0,1,132.1,46.09ZM406,40.52a3.14,3.14,0,0,1-1.56-.41l0,0a3.16,3.16,0,0,1,3.08-5.51l.1,0a3.16,3.16,0,0,1-1.57,5.9ZM160.18,31a3.16,3.16,0,0,1-1.33-6l.06,0a3.16,3.16,0,0,1,2.68,5.72l-.09,0A3.12,3.12,0,0,1,160.18,31ZM377.26,26.6a3.15,3.15,0,0,1-1.19-.23l-.09,0a3.16,3.16,0,0,1,2.42-5.84l.06,0a3.16,3.16,0,0,1-1.2,6.08ZM189.85,19.37a3.16,3.16,0,0,1-1-6.16l0,0a3.16,3.16,0,0,1,2,6l-.11,0A3,3,0,0,1,189.85,19.37Zm157.27-3.2a3,3,0,0,1-.83-.11l-.11,0A3.16,3.16,0,0,1,347.9,10h0a3.16,3.16,0,0,1-.82,6.21ZM220.7,11.32a3.16,3.16,0,0,1-.61-6.26h0a3.16,3.16,0,0,1,1.3,6.19l-.13,0A3.05,3.05,0,0,1,220.7,11.32ZM316,9.39a2.56,2.56,0,0,1-.47,0h-.11a3.16,3.16,0,0,1,1-6.24h0A3.16,3.16,0,0,1,316,9.39ZM252.28,7A3.16,3.16,0,0,1,252,.65h.08a3.15,3.15,0,1,1,.5,6.29h-.33Zm32-.64h-.19A3.16,3.16,0,1,1,284.26,0h.12a3.16,3.16,0,0,1-.14,6.31Z"/><path d="M544.59,276.94a3.17,3.17,0,1,1,3.16-3.18v0A3.17,3.17,0,0,1,544.59,276.94Z"/></g></g></svg>