<svg xmlns="http://www.w3.org/2000/svg" viewBox="0 0 24 24"><defs><style>.cls-1{fill:#fff;}</style></defs><title>Asset 6</title><g id="Layer_2" data-name="Layer 2"><g id="DataCloud_Home"><path class="cls-1" d="M19,24H5a5,5,0,0,1-5-5V13H2v6a3,3,0,0,0,3,3H19a3,3,0,0,0,3-3V13h2v6A5,5,0,0,1,19,24Z"/><path class="cls-1" d="M24,11H22V5a3,3,0,0,0-3-3H5A3,3,0,0,0,2,5v6H0V5A5,5,0,0,1,5,0H19a5,5,0,0,1,5,5Z"/><rect class="cls-1" x="6" y="11" width="6" height="2"/><rect class="cls-1" x="11.59" y="7" width="7.81" height="2" transform="translate(-0.57 14.78) rotate(-50.19)"/></g></g></svg>